<?xml version="1.0" encoding="UTF-8"?>
<svg xmlns="http://www.w3.org/2000/svg" xmlns:xlink="http://www.w3.org/1999/xlink"
     width="650" height="450" viewBox="400 420 650 430" version="1.2">
<g id="raccoon-face">
<path style=" stroke:none;fill-rule:nonzero;fill:rgb(0%,0%,0%);fill-opacity:1;" d="M 735.515625 616.414062 C 756.976562 585.230469 795.195312 564.46875 838.78125 564.46875 C 871.488281 564.46875 901.175781 576.164062 923.027344 595.175781 C 954.527344 550.28125 962.277344 496.347656 955.011719 491.082031 C 945.042969 483.859375 887.582031 496.859375 839.523438 530.398438 C 760.457031 499.433594 710.667969 499.964844 631.511719 530.398438 C 583.449219 496.859375 525.992188 483.859375 516.023438 491.082031 C 508.753906 496.347656 516.503906 550.28125 548.003906 595.175781 C 569.855469 576.164062 599.542969 564.46875 632.253906 564.46875 C 675.835938 564.46875 714.054688 585.230469 735.515625 616.414062 "/>
<path style=" stroke:none;fill-rule:nonzero;fill:rgb(0%,0%,0%);fill-opacity:1;" d="M 773.722656 779.167969 C 773.722656 791.496094 756.515625 801.492188 735.289062 801.492188 C 714.058594 801.492188 696.851562 791.496094 696.851562 779.167969 C 696.851562 766.835938 714.058594 743.449219 735.289062 743.449219 C 756.515625 743.449219 773.722656 766.835938 773.722656 779.167969 "/>
<path style=" stroke:none;fill-rule:nonzero;fill:rgb(0%,0%,0%);fill-opacity:1;" d="M 816.253906 698.980469 C 804.089844 700.183594 793.953125 690.046875 795.160156 677.886719 C 796.050781 668.886719 803.328125 661.605469 812.328125 660.714844 C 824.492188 659.511719 834.628906 669.648438 833.425781 681.808594 C 832.53125 690.808594 825.253906 698.089844 816.253906 698.980469 M 936.695312 671.90625 C 936.695312 671.90625 864.6875 598.5 813.027344 613.0625 C 767.472656 625.90625 749.964844 665.175781 760.882812 721.78125 C 760.882812 721.78125 803.320312 729.40625 836.449219 786.8125 C 839.929688 792.847656 847.597656 795.039062 853.914062 792.101562 C 873.84375 782.824219 915.679688 760.542969 941.164062 726.964844 C 953.882812 710.207031 951.828125 686.519531 936.695312 671.90625 "/>
<path style=" stroke:none;fill-rule:nonzero;fill:rgb(0%,0%,0%);fill-opacity:1;" d="M 637.609375 681.808594 C 636.402344 669.648438 646.542969 659.511719 658.703125 660.714844 C 667.703125 661.605469 674.980469 668.886719 675.871094 677.886719 C 677.078125 690.046875 666.941406 700.183594 654.777344 698.980469 C 645.777344 698.089844 638.5 690.808594 637.609375 681.808594 M 529.867188 726.964844 C 555.351562 760.542969 597.1875 782.824219 617.117188 792.101562 C 623.433594 795.042969 631.101562 792.84375 634.582031 786.8125 C 667.710938 729.40625 710.148438 721.78125 710.148438 721.78125 C 721.066406 665.175781 703.558594 625.902344 658.007812 613.0625 C 606.34375 598.5 534.339844 671.90625 534.339844 671.90625 C 519.203125 686.519531 517.148438 710.207031 529.867188 726.964844 "/>
</g>
</svg>