<svg width="2400" height="1400" viewBox="0 0 2400 1400" fill="none" xmlns="http://www.w3.org/2000/svg">
  <defs>
    <filter id="softGlow" x="-20%" y="-20%" width="140%" height="140%">
      <feGaussianBlur stdDeviation="36"/>
    </filter>
    <filter id="microGrid" x="-20%" y="-20%" width="140%" height="140%">
      <feTurbulence type="fractalNoise" baseFrequency="0.9" numOctaves="1" stitchTiles="stitch" result="noise"/>
      <feColorMatrix in="noise" type="saturate" values="0"/>
      <feComponentTransfer>
        <feFuncA type="table" tableValues="0 0.04"/>
      </feComponentTransfer>
    </filter>
  </defs>

  <rect width="2400" height="1400" fill="#FCFBFA"/>
  <rect width="2400" height="1400" fill="#FFFFFF" filter="url(#microGrid)"/>

  <g opacity="0.55" filter="url(#softGlow)">
    <ellipse cx="947" cy="378" rx="316" ry="218" fill="#DDF2CF"/>
    <ellipse cx="1416" cy="316" rx="354" ry="224" fill="#DAF0CB"/>
    <ellipse cx="1034" cy="907" rx="438" ry="254" fill="#E4F3D8"/>
    <ellipse cx="1719" cy="845" rx="370" ry="240" fill="#D8EFCB"/>
    <ellipse cx="435" cy="795" rx="260" ry="190" fill="#DBF1CC"/>
  </g>

  <path d="M70 595C343 534 522 499 727 489C975 477 1221 506 1510 553C1737 590 1978 620 2330 645" stroke="#D9EEF9" stroke-width="76" stroke-linecap="round"/>
  <path d="M1219 674C1374 640 1507 628 1619 646C1785 673 1933 746 2132 785C2232 805 2319 813 2383 811" stroke="#D9EEF9" stroke-width="76" stroke-linecap="round"/>

  <g opacity="0.24" stroke="#B9DAB0" stroke-width="2">
    <path d="M829 165L1080 334L999 573L728 604L567 384L829 165Z"/>
    <path d="M1248 104L1598 155L1780 433L1660 714L1320 784L1111 590L1091 290L1248 104Z"/>
    <path d="M388 533L675 570L787 785L698 1050L408 1120L188 950L139 694L388 533Z"/>
    <path d="M1178 744L1508 721L1815 867L1741 1172L1417 1281L1088 1180L939 910L1178 744Z"/>
    <path d="M1846 614L2055 674L2218 841L2148 1094L1944 1167L1719 1047L1659 800L1846 614Z"/>
    <path d="M534 256L915 261M509 355L1053 369M446 450L1179 470M339 555L1258 559M291 673L1312 657M309 807L1397 793M412 925L1505 918"/>
    <path d="M688 137L615 1207M824 120L761 1246M969 104L910 1283M1121 122L1067 1302M1286 102L1253 1297M1453 107L1440 1261M1612 145L1622 1210M1780 232L1779 1099M1944 433L1906 1051"/>
  </g>

  <g fill="none" stroke-linecap="round" stroke-linejoin="round">
    <path d="M829 168C808 315 817 397 854 470C902 565 987 619 998 725C1006 806 969 886 919 977C882 1045 850 1107 811 1182" stroke="#FF9200" stroke-width="11"/>
    <path d="M809 340C850 331 888 334 919 361C950 388 953 433 927 455C904 473 873 459 864 429C852 390 879 350 934 313" stroke="#FF9200" stroke-width="11"/>

    <path d="M580 573C673 631 748 684 842 754C936 824 1048 851 1182 836C1337 818 1477 752 1616 661C1741 579 1876 493 2044 429C2145 390 2233 384 2307 413" stroke="#7C8E46" stroke-width="11"/>
    <path d="M1981 83C2016 225 2040 325 2078 483C2116 646 2120 828 2055 999C2034 1055 2007 1106 1966 1186" stroke="#6F8E2A" stroke-width="11"/>

    <path d="M1468 123C1473 259 1462 336 1424 409C1384 483 1310 531 1264 618C1214 714 1206 824 1245 953C1276 1054 1313 1139 1353 1240" stroke="#9ED11B" stroke-width="11"/>
    <path d="M1639 114C1672 225 1718 312 1710 422C1703 517 1648 585 1552 635C1442 694 1367 758 1336 863" stroke="#0B7FC9" stroke-width="12"/>

    <path d="M1656 63C1660 178 1679 264 1707 349C1749 474 1757 596 1714 717C1672 832 1644 957 1652 1183" stroke="#005BB5" stroke-width="12"/>
    <path d="M1561 88C1548 186 1532 250 1479 337C1422 431 1342 497 1305 588C1270 674 1263 786 1274 952" stroke="#0076C8" stroke-width="11"/>
    <path d="M221 1246C309 1181 404 1117 518 1077C628 1038 725 1015 850 1010C1009 1005 1161 1033 1332 1019C1515 1004 1697 935 1929 874" stroke="#178E48" stroke-width="11"/>
    <path d="M418 933C602 918 746 909 906 933C1078 959 1241 1025 1444 1044C1642 1062 1801 1036 1961 989" stroke="#179B5A" stroke-width="11"/>
    <path d="M711 652C820 646 911 641 1016 637C1157 631 1276 633 1429 661C1611 694 1745 732 1893 733C2040 734 2169 708 2307 652" stroke="#16A86F" stroke-width="11"/>

    <path d="M942 1211C917 1064 934 935 996 851C1055 771 1163 735 1255 665C1329 610 1375 553 1396 477" stroke="#F15218" stroke-width="11"/>
    <path d="M1122 686C1189 685 1258 677 1312 645C1366 613 1378 560 1345 522C1318 492 1267 493 1240 523C1207 559 1209 619 1238 671" stroke="#F18A00" stroke-width="11"/>
    <path d="M1852 1176C1805 1032 1736 928 1634 870C1511 799 1389 802 1300 734C1232 681 1200 596 1202 505" stroke="#FFCC00" stroke-width="12"/>

    <path d="M244 552C310 586 369 618 421 676C472 734 466 791 427 833C384 878 320 890 241 907C174 921 116 936 72 956" stroke="#6038AA" stroke-width="11"/>
    <path d="M260 436C311 463 359 489 385 536C406 576 395 622 361 640C328 657 286 648 243 633C199 618 156 611 100 615" stroke="#7A48B2" stroke-width="11"/>
    <path d="M428 864C556 817 659 782 796 774C919 766 1039 785 1154 768C1266 751 1341 708 1413 632" stroke="#5E42B8" stroke-width="10"/>
    <path d="M1518 712C1618 704 1694 699 1773 703C1864 708 1939 731 2014 768C2083 803 2160 841 2244 843C2322 845 2382 818 2429 775" stroke="#6E47B7" stroke-width="10"/>

    <path d="M1961 1200C1936 1080 1938 991 1987 915C2036 838 2132 798 2220 721C2286 662 2324 595 2347 502" stroke="#D92D6C" stroke-width="11"/>
    <path d="M2242 835C2189 859 2145 882 2118 930C2092 975 2098 1029 2144 1062C2184 1090 2242 1083 2304 1056C2369 1028 2423 1011 2472 1014" stroke="#D92D6C" stroke-width="11"/>

    <path d="M182 461C235 523 284 568 354 606C429 647 519 668 646 670C764 671 864 650 1012 617C1123 592 1215 577 1302 576" stroke="#0597D9" stroke-width="11"/>
    <path d="M584 579C676 545 771 519 872 510C992 499 1109 504 1214 532C1325 561 1426 620 1528 721" stroke="#005FB0" stroke-width="11"/>
    <path d="M1184 1162C1178 1030 1169 931 1178 849C1190 731 1225 641 1213 543C1201 439 1144 372 1051 316" stroke="#27A0E0" stroke-width="10"/>
  </g>
</svg>
